Coordinates
version=1
nRows=9
nColumns=24
inDegrees=yes

Units are S.I. units (second, meters, Newtons, ...)
Angles are in degrees.

endheader
time	pelvis_tilt	pelvis_list	pelvis_rotation	pelvis_tx	pelvis_ty	pelvis_tz	hip_flexion_r	hip_adduction_r	hip_rotation_r	knee_angle_r	ankle_angle_r	subtalar_angle_r	mtp_angle_r	hip_flexion_l	hip_adduction_l	hip_rotation_l	knee_angle_l	ankle_angle_l	subtalar_angle_l	mtp_angle_l	lumbar_extension	lumbar_bending	lumbar_rotation
      6.28500000	     13.55903941	     -7.14015735	     15.84928143	      2.56698233	      0.93449738	     -0.28000269	     -8.69081049	     13.97401886	     -4.04880518	    -10.39079712	     21.15705374	     -8.26902404	      0.00000000	      4.31498772	    -11.54198897	      8.32636576	    -68.30111395	     14.68745789	     -0.93424690	      0.00000000	    -24.17619859	     13.44819224	    -13.68876092
      6.29000000	     13.52478503	     -6.92575531	     15.47044539	      2.57266281	      0.93502152	     -0.27939002	     -9.29085916	     13.79895941	     -3.83296449	    -10.06790077	     21.31625936	     -8.02428617	      0.00000000	      4.91082507	    -11.04314314	      7.98253621	    -68.01136485	     15.15997189	     -0.96238285	      0.00000000	    -24.32407248	     13.07685531	    -13.19018304
      6.29500000	     13.49007980	     -6.71988614	     15.08794332	      2.57832628	      0.93549806	     -0.27877210	     -9.88370757	     13.62419443	     -3.64143163	     -9.74718687	     21.48210242	     -7.76092183	      0.00000000	      5.49667068	    -10.56283376	      7.62909941	    -67.64146486	     15.62927413	     -0.92374809	      0.00000000	    -24.46863744	     12.71098651	    -12.69297979
      6.30000000	     13.45531440	     -6.52702183	     14.69716193	      2.58395777	      0.93593765	     -0.27817137	    -10.46652577	     13.45135399	     -3.46725702	     -9.43269807	     21.63781556	     -7.47286306	      0.00000000	      6.07000914	    -10.10034815	      7.26785497	    -67.18988188	     16.09640594	     -0.83341663	      0.00000000	    -24.61374897	     12.35838413	    -12.18169025
      6.30500000	     13.43593961	     -6.34049641	     14.28795039	      2.58961978	      0.93636992	     -0.27754321	    -11.07243982	     13.28031342	     -3.29279848	     -9.10188527	     21.77533402	     -7.18545049	      0.00000000	      6.60334362	     -9.66476852	      6.87826303	    -66.64794909	     16.52426260	     -0.67960413	      0.00000000	    -24.76658847	     12.00174232	    -11.64259236
      6.31000000	     13.39758260	     -6.17213164	     13.89457103	      2.59519713	      0.93671115	     -0.27696899	    -11.63084472	     13.11365882	     -3.16354499	     -8.80235515	     21.93799215	     -6.85432980	      0.00000000	      7.15834432	     -9.24151464	      6.51365100	    -66.03942996	     16.98730464	     -0.48665964	      0.00000000	    -24.90416569	     11.67566224	    -11.13420819
      6.31500000	     13.37187115	     -6.01207727	     13.48035913	      2.60079346	      0.93704312	     -0.27637115	    -12.20531259	     12.94860295	     -3.02868794	     -8.49501125	     22.08013926	     -6.51852591	      0.00000000	      7.67462801	     -8.84503458	      6.12281642	    -65.34162156	     17.41485097	     -0.25317232	      0.00000000	    -25.05124469	     11.34669850	    -10.59147066
      6.32000000	     13.33686324	     -5.87009756	     13.09260837	      2.60638425	      0.93729485	     -0.27576759	    -12.75904504	     12.80293521	     -2.93365329	     -8.18780032	     22.24475777	     -6.18480084	      0.00000000	      8.19762483	     -8.47694982	      5.75669769	    -64.57445403	     17.85139031	      0.03287076	      0.00000000	    -25.17454046	     11.03373396	    -10.08753495
      6.32500000	     13.33164637	     -5.72829414	     12.65569468	      2.61193748	      0.93759259	     -0.27519346	    -13.34208084	     12.63852265	     -2.80513166	     -7.89181399	     22.35095337	     -5.82757315	      0.00000000	      8.65002027	     -8.11903717	      5.35020852	    -63.70776279	     18.23571684	      0.31352134	      0.00000000	    -25.34980885	     10.72262171	     -9.50480081
